<svg xmlns="http://www.w3.org/2000/svg" xmlns:xlink="http://www.w3.org/1999/xlink" viewBox="0 0 541.48 478.82"><defs><style>.cls-1,.cls-2,.cls-3,.cls-4,.cls-5,.cls-6,.cls-7{fill:none;}.cls-1,.cls-2,.cls-3,.cls-6,.cls-7{stroke-miterlimit:10;}.cls-1,.cls-2{stroke-width:3px;}.cls-1{stroke:url(#未命名的渐变_11);}.cls-2{stroke-dasharray:12 12;stroke:url(#未命名的渐变_11-2);}.cls-3,.cls-4,.cls-5,.cls-6,.cls-7{stroke-width:8px;}.cls-3{stroke-dasharray:20.17 20.17;stroke:url(#未命名的渐变_11-3);}.cls-4,.cls-5,.cls-6,.cls-7{stroke-linecap:round;}.cls-4,.cls-5{stroke-linejoin:round;}.cls-4{stroke:url(#未命名的渐变_11-4);}.cls-5{stroke:url(#未命名的渐变_11-5);}.cls-6{stroke:url(#未命名的渐变_11-6);}.cls-7{stroke:url(#未命名的渐变_11-7);}.cls-8{fill:url(#未命名的渐变_11-8);}.cls-9{fill:url(#未命名的渐变_11-9);}.cls-10{fill:url(#未命名的渐变_12);}.cls-11{fill:url(#未命名的渐变_94);}.cls-12{fill:url(#未命名的渐变_94-2);}.cls-13{fill:url(#未命名的渐变_94-3);}.cls-14{fill:url(#未命名的渐变_94-4);}.cls-15{fill:url(#未命名的渐变_94-5);}.cls-16{fill:url(#未命名的渐变_94-6);}.cls-17{fill:url(#未命名的渐变_94-7);}.cls-18{fill:url(#未命名的渐变_94-8);}.cls-19{fill:url(#未命名的渐变_94-9);}.cls-20{fill:url(#未命名的渐变_94-10);}.cls-21{fill:url(#未命名的渐变_94-11);}.cls-22{fill:url(#未命名的渐变_94-12);}.cls-23{fill:url(#未命名的渐变_94-13);}.cls-24{fill:url(#未命名的渐变_94-14);}.cls-25{fill:url(#未命名的渐变_94-15);}.cls-26{fill:url(#未命名的渐变_94-16);}.cls-27{fill:url(#未命名的渐变_94-17);}.cls-28{fill:url(#未命名的渐变_94-18);}.cls-29{fill:url(#未命名的渐变_94-19);}.cls-30{fill:url(#未命名的渐变_94-20);}.cls-31{fill:url(#未命名的渐变_94-21);}.cls-32{fill:url(#未命名的渐变_94-22);}.cls-33{fill:url(#未命名的渐变_94-23);}.cls-34{fill:url(#未命名的渐变_94-24);}.cls-35{fill:url(#未命名的渐变_94-25);}.cls-36{fill:url(#未命名的渐变_94-26);}.cls-37{fill:url(#未命名的渐变_94-27);}.cls-38{fill:url(#未命名的渐变_94-28);}.cls-39{fill:url(#未命名的渐变_94-29);}.cls-40{fill:url(#未命名的渐变_94-30);}.cls-41{fill:url(#未命名的渐变_94-31);}.cls-42{fill:url(#未命名的渐变_94-32);}.cls-43{fill:url(#未命名的渐变_94-33);}.cls-44{fill:url(#未命名的渐变_94-34);}.cls-45{fill:url(#未命名的渐变_94-35);}.cls-46{fill:url(#未命名的渐变_94-36);}.cls-47{fill:url(#未命名的渐变_94-37);}.cls-48{fill:url(#未命名的渐变_94-38);}.cls-49{fill:url(#未命名的渐变_94-39);}.cls-50{fill:url(#未命名的渐变_94-40);}.cls-51{fill:url(#未命名的渐变_94-41);}.cls-52{fill:url(#未命名的渐变_94-42);}.cls-53{fill:url(#未命名的渐变_94-43);}.cls-54{fill:url(#未命名的渐变_94-44);}.cls-55{fill:url(#未命名的渐变_94-45);}.cls-56{fill:url(#未命名的渐变_94-46);}.cls-57{fill:url(#未命名的渐变_94-47);}.cls-58{fill:url(#未命名的渐变_94-48);}.cls-59{fill:url(#未命名的渐变_94-49);}.cls-60{fill:url(#未命名的渐变_94-50);}.cls-61{fill:url(#未命名的渐变_94-51);}.cls-62{fill:url(#未命名的渐变_94-52);}.cls-63{fill:url(#未命名的渐变_94-53);}.cls-64{fill:url(#未命名的渐变_94-54);}.cls-65{fill:url(#未命名的渐变_94-55);}.cls-66{fill:url(#未命名的渐变_94-56);}.cls-67{fill:url(#未命名的渐变_94-57);}.cls-68{fill:url(#未命名的渐变_94-58);}.cls-69{fill:url(#未命名的渐变_94-59);}.cls-70{fill:url(#未命名的渐变_94-60);}.cls-71{fill:url(#未命名的渐变_94-61);}.cls-72{fill:url(#未命名的渐变_94-62);}.cls-73{fill:url(#未命名的渐变_94-63);}.cls-74{fill:url(#未命名的渐变_94-64);}.cls-75{fill:url(#未命名的渐变_94-65);}.cls-76{fill:url(#未命名的渐变_94-66);}.cls-77{fill:url(#未命名的渐变_94-67);}.cls-78{fill:url(#未命名的渐变_94-68);}.cls-79{fill:url(#未命名的渐变_94-69);}.cls-80{fill:url(#未命名的渐变_94-70);}.cls-81{fill:url(#未命名的渐变_94-71);}.cls-82{fill:url(#未命名的渐变_94-72);}.cls-83{fill:url(#未命名的渐变_94-73);}.cls-84{fill:url(#未命名的渐变_94-74);}.cls-85{fill:url(#未命名的渐变_94-75);}.cls-86{fill:url(#未命名的渐变_94-76);}.cls-87{fill:url(#未命名的渐变_94-77);}.cls-88{fill:url(#未命名的渐变_94-78);}.cls-89{fill:url(#未命名的渐变_94-79);}</style><linearGradient id="未命名的渐变_11" x1="268.64" y1="233.8" x2="268.64" y2="174.06" gradientTransform="matrix(1, 0, 0, -1, 0, 498.8)" gradientUnits="userSpaceOnUse"><stop offset="0.11" stop-color="#135fc9"/><stop offset="1" stop-color="#4ff"/></linearGradient><linearGradient id="未命名的渐变_11-2" x1="268.64" y1="246.1" x2="268.64" y2="139.5" xlink:href="#未命名的渐变_11"/><linearGradient id="未命名的渐变_11-3" x1="271.84" y1="260.3" x2="271.84" y2="77.5" xlink:href="#未命名的渐变_11"/><linearGradient id="未命名的渐变_11-4" x1="202.42" y1="51.99" x2="202.42" y2="18.47" gradientTransform="matrix(0.98, -0.04, -0.04, -1, 15, 484.18)" xlink:href="#未命名的渐变_11"/><linearGradient id="未命名的渐变_11-5" x1="264.82" y1="246.91" x2="264.82" y2="55.39" gradientTransform="matrix(0.98, -0.04, -0.04, -1, 15, 484.18)" xlink:href="#未命名的渐变_11"/><linearGradient id="未命名的渐变_11-6" x1="223.12" y1="279.97" x2="223.12" y2="71.15" gradientTransform="matrix(1.06, -0.04, -0.04, -1.1, 42.01, 544.1)" xlink:href="#未命名的渐变_11"/><linearGradient id="未命名的渐变_11-7" x1="232.25" y1="68.11" x2="232.25" y2="51.44" gradientTransform="matrix(1.06, -0.04, -0.04, -1.1, 42.01, 544.1)" xlink:href="#未命名的渐变_11"/><linearGradient id="未命名的渐变_11-8" x1="268.64" y1="240.5" x2="268.64" y2="155.1" xlink:href="#未命名的渐变_11"/><linearGradient id="未命名的渐变_11-9" x1="270.74" y1="253.4" x2="270.74" y2="114.4" xlink:href="#未命名的渐变_11"/><radialGradient id="未命名的渐变_12" cx="-1331.33" cy="3.16" r="1" gradientTransform="translate(205529.43 -339.74) scale(154.18 154.32)" gradientUnits="userSpaceOnUse"><stop offset="0.79" stop-color="#1868ad"/><stop offset="0.86" stop-color="#217adc"/><stop offset="0.96" stop-color="#12e7e3"/><stop offset="1" stop-color="#fff"/></radialGradient><linearGradient id="未命名的渐变_94" x1="221.7" y1="220.65" x2="230.12" y2="220.65" gradientTransform="matrix(1, 0, 0, -1, 0, 498.8)" gradientUnits="userSpaceOnUse"><stop offset="0" stop-color="#299cff"/><stop offset="1" stop-color="#53ffff"/></linearGradient><linearGradient id="未命名的渐变_94-2" x1="230.14" y1="217.16" x2="260.14" y2="217.16" xlink:href="#未命名的渐变_94"/><linearGradient id="未命名的渐变_94-3" x1="215.18" y1="224.75" x2="215.54" y2="224.75" xlink:href="#未命名的渐变_94"/><linearGradient id="未命名的渐变_94-4" x1="212.57" y1="225.4" x2="215.18" y2="225.4" xlink:href="#未命名的渐变_94"/><linearGradient id="未命名的渐变_94-5" x1="219.59" y1="222.9" x2="220.14" y2="222.9" xlink:href="#未命名的渐变_94"/><linearGradient id="未命名的渐变_94-6" x1="358.36" y1="268.16" x2="362.71" y2="268.16" xlink:href="#未命名的渐变_94"/><linearGradient id="未命名的渐变_94-7" x1="373.63" y1="282.1" x2="377.83" y2="282.1" xlink:href="#未命名的渐变_94"/><linearGradient id="未命名的渐变_94-8" x1="359.07" y1="265.85" x2="364.1" y2="265.85" xlink:href="#未命名的渐变_94"/><linearGradient id="未命名的渐变_94-9" x1="359.52" y1="277.59" x2="374.5" y2="277.59" xlink:href="#未命名的渐变_94"/><linearGradient id="未命名的渐变_94-10" x1="215.54" y1="224.35" x2="216.75" y2="224.35" xlink:href="#未命名的渐变_94"/><linearGradient id="未命名的渐变_94-11" x1="314.24" y1="242.58" x2="366.94" y2="242.58" xlink:href="#未命名的渐变_94"/><linearGradient id="未命名的渐变_94-12" x1="355.03" y1="287.43" x2="372.68" y2="287.43" xlink:href="#未命名的渐变_94"/><linearGradient id="未命名的渐变_94-13" x1="339.77" y1="289.39" x2="349.18" y2="289.39" xlink:href="#未命名的渐变_94"/><linearGradient id="未命名的渐变_94-14" x1="160.93" y1="425.3" x2="171" y2="425.3" xlink:href="#未命名的渐变_94"/><linearGradient id="未命名的渐变_94-15" x1="291.31" y1="478.4" x2="299.25" y2="478.4" xlink:href="#未命名的渐变_94"/><linearGradient id="未命名的渐变_94-16" x1="162.99" y1="429" x2="181.56" y2="429" xlink:href="#未命名的渐变_94"/><linearGradient id="未命名的渐变_94-17" x1="298.99" y1="476.85" x2="304.7" y2="476.85" xlink:href="#未命名的渐变_94"/><linearGradient id="未命名的渐变_94-18" x1="291.14" y1="479.2" x2="291.31" y2="479.2" xlink:href="#未命名的渐变_94"/><linearGradient id="未命名的渐变_94-19" x1="202.33" y1="229.05" x2="210.96" y2="229.05" xlink:href="#未命名的渐变_94"/><linearGradient id="未命名的渐变_94-20" x1="195.04" y1="235.35" x2="197.02" y2="235.35" xlink:href="#未命名的渐变_94"/><linearGradient id="未命名的渐变_94-21" x1="197.02" y1="233.05" x2="202.33" y2="233.05" xlink:href="#未命名的渐变_94"/><linearGradient id="未命名的渐变_94-22" x1="193.8" y1="236.45" x2="195.04" y2="236.45" xlink:href="#未命名的渐变_94"/><linearGradient id="未命名的渐变_94-23" x1="193.37" y1="236.95" x2="193.8" y2="236.95" xlink:href="#未命名的渐变_94"/><linearGradient id="未命名的渐变_94-24" x1="197.59" y1="379.39" x2="205.4" y2="379.39" xlink:href="#未命名的渐变_94"/><linearGradient id="未命名的渐变_94-25" x1="347.27" y1="455.15" x2="349.3" y2="455.15" xlink:href="#未命名的渐变_94"/><linearGradient id="未命名的渐变_94-26" x1="367.84" y1="267.66" x2="377.75" y2="267.66" xlink:href="#未命名的渐变_94"/><linearGradient id="未命名的渐变_94-27" x1="373.72" y1="265.54" x2="376.59" y2="265.54" xlink:href="#未命名的渐变_94"/><linearGradient id="未命名的渐变_94-28" x1="372.41" y1="263.35" x2="375.16" y2="263.35" xlink:href="#未命名的渐变_94"/><linearGradient id="未命名的渐变_94-29" x1="214.31" y1="378.85" x2="219.81" y2="378.85" xlink:href="#未命名的渐变_94"/><linearGradient id="未命名的渐变_94-30" x1="174.04" y1="397.85" x2="176.46" y2="397.85" xlink:href="#未命名的渐变_94"/><linearGradient id="未命名的渐变_94-31" x1="171.49" y1="390.83" x2="175.77" y2="390.83" xlink:href="#未命名的渐变_94"/><linearGradient id="未命名的渐变_94-32" x1="162.89" y1="388.17" x2="165.31" y2="388.17" xlink:href="#未命名的渐变_94"/><linearGradient id="未命名的渐变_94-33" x1="293.47" y1="464.55" x2="297.93" y2="464.55" xlink:href="#未命名的渐变_94"/><linearGradient id="未命名的渐变_94-34" x1="345.01" y1="273.47" x2="353.39" y2="273.47" xlink:href="#未命名的渐变_94"/><linearGradient id="未命名的渐变_94-35" x1="369.54" y1="274.12" x2="372.71" y2="274.12" xlink:href="#未命名的渐变_94"/><linearGradient id="未命名的渐变_94-36" x1="367.99" y1="275.04" x2="369.89" y2="275.04" xlink:href="#未命名的渐变_94"/><linearGradient id="未命名的渐变_94-37" x1="354.55" y1="269.26" x2="357.88" y2="269.26" xlink:href="#未命名的渐变_94"/><linearGradient id="未命名的渐变_94-38" x1="356.23" y1="266.76" x2="357.43" y2="266.76" xlink:href="#未命名的渐变_94"/><linearGradient id="未命名的渐变_94-39" x1="170.21" y1="427.27" x2="170.75" y2="427.27" xlink:href="#未命名的渐变_94"/><linearGradient id="未命名的渐变_94-40" x1="276.65" y1="468.75" x2="278.91" y2="468.75" xlink:href="#未命名的渐变_94"/><linearGradient id="未命名的渐变_94-41" x1="393.5" y1="395" x2="395.23" y2="395" xlink:href="#未命名的渐变_94"/><linearGradient id="未命名的渐变_94-42" x1="272.17" y1="480.9" x2="272.58" y2="480.9" xlink:href="#未命名的渐变_94"/><linearGradient id="未命名的渐变_94-43" x1="269.18" y1="474.28" x2="284.96" y2="474.28" xlink:href="#未命名的渐变_94"/><linearGradient id="未命名的渐变_94-44" x1="392.42" y1="398.6" x2="393.5" y2="398.6" xlink:href="#未命名的渐变_94"/><linearGradient id="未命名的渐变_94-45" x1="180.34" y1="451.55" x2="192.31" y2="451.55" xlink:href="#未命名的渐变_94"/><linearGradient id="未命名的渐变_94-46" x1="263.18" y1="467.55" x2="266.88" y2="467.55" xlink:href="#未命名的渐变_94"/><linearGradient id="未命名的渐变_94-47" x1="183.71" y1="449.85" x2="183.85" y2="449.85" xlink:href="#未命名的渐变_94"/><linearGradient id="未命名的渐变_94-48" x1="396.04" y1="390.45" x2="396.15" y2="390.45" xlink:href="#未命名的渐变_94"/><linearGradient id="未命名的渐变_94-49" x1="399.21" y1="373.95" x2="401.31" y2="373.95" xlink:href="#未命名的渐变_94"/><linearGradient id="未命名的渐变_94-50" x1="389.68" y1="405.85" x2="389.72" y2="405.85" xlink:href="#未命名的渐变_94"/><linearGradient id="未命名的渐变_94-51" x1="397.02" y1="356.25" x2="402.53" y2="356.25" xlink:href="#未命名的渐变_94"/><linearGradient id="未命名的渐变_94-52" x1="390.82" y1="401.7" x2="392.42" y2="401.7" xlink:href="#未命名的渐变_94"/><linearGradient id="未命名的渐变_94-53" x1="395.23" y1="386.9" x2="398.91" y2="386.9" xlink:href="#未命名的渐变_94"/><linearGradient id="未命名的渐变_94-54" x1="274.81" y1="480.8" x2="274.91" y2="480.8" xlink:href="#未命名的渐变_94"/><linearGradient id="未命名的渐变_94-55" x1="274.39" y1="480.88" x2="274.81" y2="480.88" xlink:href="#未命名的渐变_94"/><linearGradient id="未命名的渐变_94-56" x1="272.58" y1="480.9" x2="272.91" y2="480.9" xlink:href="#未命名的渐变_94"/><linearGradient id="未命名的渐变_94-57" x1="288.94" y1="473.69" x2="291.12" y2="473.69" xlink:href="#未命名的渐变_94"/><linearGradient id="未命名的渐变_94-58" x1="275.62" y1="480.8" x2="276.47" y2="480.8" xlink:href="#未命名的渐变_94"/><linearGradient id="未命名的渐变_94-59" x1="244.81" y1="262.55" x2="254.49" y2="262.55" xlink:href="#未命名的渐变_94"/><linearGradient id="未命名的渐变_94-60" x1="313.66" y1="313.98" x2="314.27" y2="313.98" xlink:href="#未命名的渐变_94"/><linearGradient id="未命名的渐变_94-61" x1="299.51" y1="218.45" x2="310.71" y2="218.45" xlink:href="#未命名的渐变_94"/><linearGradient id="未命名的渐变_94-62" x1="310.71" y1="220.1" x2="312.52" y2="220.1" xlink:href="#未命名的渐变_94"/><linearGradient id="未命名的渐变_94-63" x1="376.75" y1="295.95" x2="382.19" y2="295.95" xlink:href="#未命名的渐变_94"/><linearGradient id="未命名的渐变_94-64" x1="373.43" y1="302.45" x2="378.21" y2="302.45" xlink:href="#未命名的渐变_94"/><linearGradient id="未命名的渐变_94-65" x1="312.64" y1="309.48" x2="316.39" y2="309.48" xlink:href="#未命名的渐变_94"/><linearGradient id="未命名的渐变_94-66" x1="370.48" y1="284.67" x2="371.48" y2="284.67" xlink:href="#未命名的渐变_94"/><linearGradient id="未命名的渐变_94-67" x1="374.06" y1="283.85" x2="375.85" y2="283.85" xlink:href="#未命名的渐变_94"/><linearGradient id="未命名的渐变_94-68" x1="369.62" y1="324.54" x2="373.36" y2="324.54" xlink:href="#未命名的渐变_94"/><linearGradient id="未命名的渐变_94-69" x1="307.98" y1="222.1" x2="314.76" y2="222.1" xlink:href="#未命名的渐变_94"/><linearGradient id="未命名的渐变_94-70" x1="156.38" y1="275.3" x2="156.91" y2="275.3" xlink:href="#未命名的渐变_94"/><linearGradient id="未命名的渐变_94-71" x1="181.44" y1="245" x2="184.97" y2="245" xlink:href="#未命名的渐变_94"/><linearGradient id="未命名的渐变_94-72" x1="142.2" y1="355.78" x2="397.89" y2="355.78" xlink:href="#未命名的渐变_94"/><linearGradient id="未命名的渐变_94-73" x1="156.91" y1="260.6" x2="181.44" y2="260.6" xlink:href="#未命名的渐变_94"/><linearGradient id="未命名的渐变_94-74" x1="184.97" y1="242.75" x2="186.74" y2="242.75" xlink:href="#未命名的渐变_94"/><linearGradient id="未命名的渐变_94-75" x1="379" y1="303.15" x2="382.92" y2="303.15" xlink:href="#未命名的渐变_94"/><linearGradient id="未命名的渐变_94-76" x1="381.92" y1="303.01" x2="384.25" y2="303.01" xlink:href="#未命名的渐变_94"/><linearGradient id="未命名的渐变_94-77" x1="381.04" y1="312.8" x2="385.74" y2="312.8" xlink:href="#未命名的渐变_94"/><linearGradient id="未命名的渐变_94-78" x1="386.08" y1="330.45" x2="388.78" y2="330.45" xlink:href="#未命名的渐变_94"/><linearGradient id="未命名的渐变_94-79" x1="186.75" y1="239.55" x2="193.37" y2="239.55" xlink:href="#未命名的渐变_94"/></defs><title>资源 1</title><g id="图层_2" data-name="图层 2"><g id="图层_1-2" data-name="图层 1"><ellipse class="cls-1" cx="268.64" cy="294.9" rx="102.9" ry="28.4"/><ellipse class="cls-2" cx="268.64" cy="306" rx="156.5" ry="51.8"/><ellipse class="cls-3" cx="271.84" cy="329.9" rx="230.2" ry="87.4"/><path class="cls-4" d="M310.94,449.6c-11.8,1.2-23.9,2-36.2,2.5-60.5,2.2-116.3-5.3-160-19.6"/><path class="cls-5" d="M25.14,366.8A51.47,51.47,0,0,1,22,351.3c-2.3-60.8,107.2-114.2,244.5-119.3s250.4,40,252.7,100.8c1,28.1-21.8,54.6-60.1,75.5"/><path class="cls-6" d="M122.24,458.4c-70-19.3-116.6-54-118.2-95.3-2.5-66.9,114.9-125.6,262.2-131.1s268.7,44.4,271.2,111.3c.8,20.6-9.9,40.5-29.2,58.2"/><path class="cls-7" d="M378.64,461a557.62,557.62,0,0,1-103.4,13.4,557.43,557.43,0,0,1-84.7-3.1"/><path class="cls-8" d="M268.64,258.3c-78.9,0-142.8,19.1-142.8,42.7s63.9,42.7,142.8,42.7,142.8-19.1,142.8-42.7S347.54,258.3,268.64,258.3Zm-1.4,77.4c-64,0-115.9-16.8-115.9-37.4s51.9-37.5,115.9-37.5,115.9,16.8,115.9,37.4S331.24,335.7,267.24,335.7Z"/><path class="cls-9" d="M270.74,245.4c-114.9,0-208,31.1-208,69.5s93.1,69.5,208,69.5,208-31.1,208-69.5S385.64,245.4,270.74,245.4Zm-2,125.9c-93.2,0-168.8-27.3-168.8-60.9s75.6-60.9,168.8-60.9,168.8,27.3,168.8,60.9S361.94,371.3,268.74,371.3Z"/><path class="cls-10" d="M423,150.8A150.7,150.7,0,1,1,272.34,0,150.76,150.76,0,0,1,423,150.8Z"/><path class="cls-11" d="M225.84,278.2c1.4.5,2.8.9,4.3,1.4-2.6-.8-4.6-1.5-8.4-2.9C223.34,277.3,223.34,277.3,225.84,278.2Z"/><path class="cls-12" d="M258.44,283.5h0c-7.9.5-18.5-1-28.3-3.9,1.6.5,3.5,1,6.2,1.8l.6.1a71.32,71.32,0,0,0,23.2,2,9.63,9.63,0,0,0-1.7,0Z"/><path class="cls-13" d="M215.24,274l.3.1c-.1,0-.2-.1-.3-.1Z"/><path class="cls-14" d="M213.24,273.1c.6.3,1.3.6,1.9.9-.8-.4-1.8-.8-2.6-1.2A4.88,4.88,0,0,1,213.24,273.1Z"/><path class="cls-15" d="M219.84,275.9a.35.35,0,0,1,.2.1h.1a1.42,1.42,0,0,0-.6-.2A.37.37,0,0,0,219.84,275.9Z"/><path class="cls-16" d="M362.74,231.3c.1-.2,0-.3-.1-.3h0a2.93,2.93,0,0,0-1-.3c-.4-.1-.9.3-1.3.2s-.3-.3-.4-.5-.2,0-.3,0v-.1c-.1-.4-.9-.3-.9-.3-.4.1-.2.5-.1.6a1.2,1.2,0,0,0,.7.7,2.25,2.25,0,0,0,.7-.1,3.78,3.78,0,0,1,1.2-.1A4.42,4.42,0,0,1,362.74,231.3Z"/><path class="cls-17" d="M374.14,218.3c-.5.9-.6,1-.5,1.6a9.19,9.19,0,0,1,1.2-1.6,1.38,1.38,0,0,0,.3-.4,8.26,8.26,0,0,0,.7-1.3c.4-.7.7-1.4,1.1-2.1a8.65,8.65,0,0,0,.7-1h0a13.93,13.93,0,0,0-1.9,1.5,3.26,3.26,0,0,0-.6,1.2C375.14,216.5,374.94,217,374.14,218.3Z"/><path class="cls-18" d="M360.24,233.8c.5-.2.9-.6,1.4-.8.1-.1.3-.1.5-.2a2.6,2.6,0,0,0,1-.4,4.54,4.54,0,0,0,.9-.5h.1c-.4,0-.7-.3-1.1-.2a.76.76,0,0,0-.5.2c-.3.1-.4.3-.7.5s-.7.2-1,.3a4.14,4.14,0,0,0-1.2.9,3.81,3.81,0,0,1-.5.6,1.74,1.74,0,0,0,.9-.1A.37.37,0,0,1,360.24,233.8Z"/><path class="cls-19" d="M372.84,215.7c0-.5,0-.5-.1-.6-.3,0-.5.5-.8.3-.1,0-.1,0-.4-1a9.25,9.25,0,0,0-1-.5,4.32,4.32,0,0,0-2.6,2.5,6.94,6.94,0,0,1-1.6,2.2c-1.1,1.2-2.4,2.2-3.4,3.5-.1.1-.1.2-.2.2a2.46,2.46,0,0,0-.4,1.1c0,.2.2.4.2.6a18.64,18.64,0,0,1-2.6,3.5,1.38,1.38,0,0,0-.3.4c-.1.2-.2.5.1.6.1,0,.7.1.9-.1s.3-.7.5-1c.7-.9,1.5-1.7,2.2-2.7a1,1,0,0,1,.4-.5c.1-.2.2-.3.3-.5s.2-.3.3-.4.1-.2.2-.3.1-.2.2-.2.1-.1.1-.2a.1.1,0,0,1,.1-.1h.1c.1.3,0,.6-.8,2.4-1.3,2.9-1.1,2.8,1,1.4-.1-.9-.1-.9,0-1,.2-.6.8-1,1.1-1.6.5-.9.4-2,1-2.8a.1.1,0,0,0,.1-.1c.3-.1.6.1.8-.1.5-.3.8-.9,1.4-1.2a.8.8,0,0,1,.9.1c.5-1.1-1.2-.8-2.2-.5-1.3.5-1.5.5-1.2-.2s1.5-3,2-3.2a.37.37,0,0,1,.3-.1c.3.1.4.4.7.4s.6-.1.9,0,.4.2.7.4c1.2.8,1.3.7,2.9-.9-.1-.1-.3-.2-.4-.3a2.77,2.77,0,0,1-1.1.6C372.84,216.1,372.84,215.8,372.84,215.7Z"/><path class="cls-20" d="M216.74,274.7h0l-1.2-.5A3.34,3.34,0,0,1,216.74,274.7Z"/><path class="cls-21" d="M356.34,249.4c0-.4,0-.5.6-1.1,1.1-1.4,1.3-3.3,2.6-4.6s3.3-1.8,4.3-3.5-.4-2.4-1-2a10,10,0,0,0-1.1,1.4c-.9-1-1-1.2-5,2.8l-.2-.2.1-1.9c-.3,0-.4,0-1.1.4a47.08,47.08,0,0,1-5.9,3c-1.7.7-2.7,2.3-4.3,3.2-3.5,1.7-7.9,1-11,3.8,0-.2.1-.4.1-.6l-7.9,6.7c-2.3,2-4.1,4.4-6.5,6.4-1.9,1.5-5,1.2-5.8,4.2.2.1.5.4,2.6-.3,1.3-.5,2.7.1,4.1-.3s2.7-1.2,4.2-1.5c.5-.1.5-.1.7.2.9,0,1.6-1.2,2.6-.6.5.3,1.1.6-.3,2a11.92,11.92,0,0,1-2.4,1.7c.2,0,.2,0,3.2-1-1.3.7-2.6,1.2-3.9,1.8.2-.1.6-.1.8-.2-2.5,1.6-5.4,2.5-7.8,4.4v.2a5.6,5.6,0,0,0,1.2-.2c-.4.3-.9.4-1.3.7,1.5.7,14.9-5.3,20.9-8.8a73.21,73.21,0,0,0,14-10.4c12.1-11,14.1-15,14.1-15.1C363.24,242.8,360.44,246.8,356.34,249.4Z"/><path class="cls-22" d="M355.84,212.7c-.5,1.4-.6,1.7-.1,1.7h.2c.3,0,.5.4-.5,2.3-.4.9-.5,1.2-.4,1.3.3.3.9,0,1.2.4.6.8.6.8,1.1.7a.94.94,0,0,1,1.1.5c.3.5,1.1,1.8,1.8,1.5.2-.1.4-.4,1.2-1.6a7.63,7.63,0,0,1,1.5-1.7,8.28,8.28,0,0,0,1.5-1.1,11.27,11.27,0,0,0,1.2-1.8c.3-.5,1.4-1.9,1.5-1.1v.2h.1a4.62,4.62,0,0,0,.7-.7h0a.77.77,0,0,0,.2-.3.76.76,0,0,0-.1-.4c-.2-.3-.3-.6,0-1.3a12.57,12.57,0,0,0,1.1-2.8c0-.2.1-.3,1.2-1.1.4-.3.6-.8,1-1.1a5.3,5.3,0,0,1,1-.6.35.35,0,0,0,.1-.2c0-.3-.3-.4-.4-.7a24.52,24.52,0,0,0-.2-2.7.55.55,0,0,0-.3-.5h0a2.8,2.8,0,0,0-.8.5c-1.5,1.2-2.3,2-2.4,2.5,0,.1,0,.3-.4.5-.1.1-.2.1-.3.2-.3.2-.8.2-1.1.4a7,7,0,0,0-1,.8,12.9,12.9,0,0,1-3,1.6c-2.2.7-2.7,1.7-2.5,2.5-.4.2-1.4-.8-1.3-1.7h0c-.6,0-1.2.7-1.7,1.2s-.6.7-.7,1,.1.9-.1,1.4C356.54,212.4,356,212.3,355.84,212.7Z"/><path class="cls-23" d="M349.14,210.1c0-.2-.6-2-.6-2-.1-.2-.2-.3-.7-.7a5.93,5.93,0,0,1-.8-.8l-1.9-3a13.63,13.63,0,0,1-1.3-3.5c-.2-1.9-4-2.8-4-2.8-.5.2,1,4,1.4,4.1s.7-.1.9.3a.37.37,0,0,0,.1.3c.2.9-.3,1.8,0,2.7.2.6.7,1,.8,1.7,0,.5-.2,1.1-.2,1.6v.3c.1.5.4.9.5,1.4a9.4,9.4,0,0,1-.1,1.2s-.4,3.8-.3,4.4c.2.9.6,1.6.8,2.5.3,1.2-.1,2.5.6,3.6.2.3.4-.1.7-.1s.4.2.7.2h.1c.2,0,.3-.1.7-.4.5-.5,1.7-2.2,2.1-2.7a4,4,0,0,0,.7-2.1c0-.7-.8-1-.8-1.7s.2-1.4.2-2.1c0-.3-.5-.4-.4-.7a4.11,4.11,0,0,1,.8-1.5C349,210.3,349.14,210.2,349.14,210.1Z"/><path class="cls-24" d="M160.94,79.8c.3.1,2-1.4,2-1.4.6-.5,1.1-1.1,1.7-1.6.3-.3.7-.4,1-.7a12.15,12.15,0,0,0,1.5-2,20.12,20.12,0,0,0,1-1.8,23.4,23.4,0,0,1,2.4-3.1c.8-1.2.5-1.4.4-1.5s-.2-.2-.1-.5h0c-1.3.9-2.6,2.1-2.5,2.6h.1c-.7.6-1.4,1.2-2,1.8a16.47,16.47,0,0,0-1.5,1.7c-.4.6-.4.8-.1.8a.35.35,0,0,0,.2-.1l-.1.1C164.24,75,160.74,79.3,160.94,79.8Z"/><path class="cls-25" d="M299.24,21.2c-1.7-.5-5.3-1.1-6-1.3l-1.9-.3c2.6.5,5.2,1.1,7.9,1.6Z"/><path class="cls-26" d="M166.24,77.1c0,.1-.1.4.5.2a1.55,1.55,0,0,0,.6-.3c1.1-.5,1.3-.5,1.5-.4,0,.4-.7,1-.9,1.1a2.8,2.8,0,0,0-1.2.8,12,12,0,0,1-1.1,1.2c-.9,1-2.1,1.7-2.7,2.8.2,0,.2,0,.6-.2,1.8-.8,3.4-1.9,5.2-2.7a13.36,13.36,0,0,0,1.8-.7,1.76,1.76,0,0,0,.5-.4,12.89,12.89,0,0,0,3.2-1.9c.1-.1.1-.1.1-.2-.6-.1-1.1.5-1.7.3.2-.4.2-.4,1-1.3.6-.7,2.6-3,2.3-3.8-.4-.2-.9.6-1.1.1a2.74,2.74,0,0,1,.4-1.5c.2-.2.2-.2.8-.2.2.1.5.2.7-.1h0c.5-1.1-.8-1.8-.7-2.8.1-.7.9-1.2.7-2.1-.1-.3-.2-.8-1.2-.5l5.3-5.3c-.2-.1-.3-.1-1.7.6-.6.3-.6.3-.8.3,0-.1.1-.3,2.2-2.1.8-.7.9-.8.9-.9h-.1a12.68,12.68,0,0,0-3.4,2.1l-.4.4-4.7,5.3c1.2-.2,1.7-1.4,2.7-1.9,0,.1-.3.8-1.6,2a3.24,3.24,0,0,0-.8.9c0,.1-.9,1.4-.9,1.6s.1.2.7.3c.1,0,.3.1.4.1V68c-.2.4-.6.6-.7.9-.3.6-.5,1.3-.8,2l-.1.1c-.6,1-.9.6-1.2.3-.2,0-.4.1-.6.1-.5.9-.7,1.9-1.3,2.8C168.24,75.6,166.94,76,166.24,77.1Z"/><path class="cls-27" d="M302.94,22.3h0c.6-.1,1.1.4,1.7.4a.31.31,0,0,1-.2-.1c-1.1-.3-5.1-1.3-5.5-1.4a13.39,13.39,0,0,1,2.6.8C301.74,22,302.84,22.3,302.94,22.3Z"/><path class="cls-28" d="M291.24,19.6h0Z"/><path class="cls-29" d="M202.34,267.4c3.5,2.1,4.8,2.8,8.6,4.7C208,270.6,205.14,269,202.34,267.4Z"/><path class="cls-30" d="M195.74,263.3c.5.3.9.6,1.3.8a22.63,22.63,0,0,1-2-1.3A4.23,4.23,0,0,0,195.74,263.3Z"/><path class="cls-31" d="M197,264.1c1.7,1.1,3.5,2.2,5.3,3.3C200.94,266.6,199.34,265.5,197,264.1Z"/><path class="cls-32" d="M195,262.8l-1.2-.9A4.7,4.7,0,0,0,195,262.8Z"/><path class="cls-33" d="M193.84,262c-.1-.1-.3-.2-.4-.3A1.38,1.38,0,0,0,193.84,262Z"/><path class="cls-34" d="M205.24,119.9a.31.31,0,0,0,.2-.1v-.1c-.4-.2-.8-.3-1.2-.5s-.7-.5-1-.6a1.86,1.86,0,0,0-1-.1,19.67,19.67,0,0,1-2.4.3c-1.3,0-1.3,0-1.4.1-.6.2-.9.5-.6.8C198.34,120.4,203.44,120.6,205.24,119.9Z"/><path class="cls-35" d="M347.24,42.9h0l2,1.5h0A12.88,12.88,0,0,0,347.24,42.9Z"/><path class="cls-36" d="M377.44,223.7c-.9.5-1.5,1.4-2.4,1.9l-.1-.1c0-.3.1-.4,1-2.2,1-2.1,1.2-2.4.9-2.7a3.43,3.43,0,0,0-1.7.5v.1c-.2.8.3,1.6.3,2.3,0,.4-.2.4-.5.5-.7.2-.9.5-1.1,1.4l-.5,3.8a6.68,6.68,0,0,1-3.4,4.7,1.87,1.87,0,0,0-.4.3c-.1.5.4.8.3,1.2-.1.6-1.2.8-.8,1.6.1.2.1.2,2.4-1.4a.1.1,0,0,0,.1.1c-.1.3-.1.3-3.7,6,.1-.1,10.9-12.3,9.8-17.8C377.64,223.8,377.54,223.8,377.44,223.7Z"/><path class="cls-37" d="M374.74,233.6v-.1c.2-.3.1-.4.1-.4a6.28,6.28,0,0,0-1.2,1.8c.1.1.5-.2,1.6-1.5a11.22,11.22,0,0,0,1.3-1.8c-.4.4-.7,1-1.1,1.4C374.94,233.7,374.84,233.6,374.74,233.6Z"/><path class="cls-38" d="M372.64,236.8h0c1.7-2,2.5-3.1,2.5-3.1-1,1.1-1.8,2.3-2.8,3.5Z"/><path class="cls-39" d="M216,121.3a20,20,0,0,0,2.4-.4,10.91,10.91,0,0,0,1.4-2.1c.1-.2-.1-.2-.2-.2a14.5,14.5,0,0,1-3,.6c-.4,0-.8-.1-1.2-.1a1.76,1.76,0,0,0-.6.1c-.8.4-.6,1.3,0,1.8A2.54,2.54,0,0,0,216,121.3Z"/><path class="cls-40" d="M174.64,103.3c.1.1,0,.3.2.3.4-.2,1.3-3.2,1.3-3.2a8.81,8.81,0,0,0,.3-2.1h0a.77.77,0,0,0-.2.3c-.3.5-.4,1.1-.7,1.7a7.35,7.35,0,0,1-.9,1.2c-.2.2-.4.3-.5.6v.4a.1.1,0,0,0,.1.1A4.35,4.35,0,0,1,174.64,103.3Z"/><path class="cls-41" d="M171.64,109.2c.2.1.6-.1.7.2.1.5-.3.9-.4,1.4-.3,1.5,2-.5,2.1-.6a3.78,3.78,0,0,0,.9-1.2.35.35,0,0,1,.1-.2c0-.1,0-.2.1-.2.1-.5.1-1,.2-1.5s.4-1.1.5-1.7.1-.9-.4-.8a6.68,6.68,0,0,0-2.8,2C172,107,171.14,109,171.64,109.2Z"/><path class="cls-42" d="M164.14,111.4a.22.22,0,0,0,.2-.2s.8-1,.9-1.1c.2-.3-.3-.4-.8-.3-.9.2-2,.9-1.4,1.3A.85.85,0,0,0,164.14,111.4Z"/><path class="cls-43" d="M297.94,36.5c0-.7-.6-1.2-1.9-1.9a2.9,2.9,0,0,1-1-.8c-.7-1-.7-2.3-1.4-3.3-.1-.1-.2-.2-.2-.3a62.77,62.77,0,0,1,3,8.1A2,2,0,0,0,297.94,36.5Z"/><path class="cls-44" d="M352.64,225.3a3.53,3.53,0,0,0-1.3-.9c-.3,0-.2.5-.6.4-.6,0-1-.4-1.6-.6h0c-.2-.1-.2-.1-.3-.4-.5-1.4-.5-1.5-1.1-1.6a.6.6,0,0,0-.4.1l-.6-.3c-.2,0-.3,0-.4.1-.3.1-1.4,1.1-1.3,1.3s.6,0,.7.3-.2.6-.2.6a5.22,5.22,0,0,0,1.4,1.4,2.54,2.54,0,0,0,.7.2c.3,0,.6-.1.9-.1.1,0,.1,0,.2.3s.3.9,1.5,1.5a.37.37,0,0,0,.3.1c.5.2,1.1.2,1.6.4a3.33,3.33,0,0,1,.6.3c.1.1.4.4.6.2a2.74,2.74,0,0,0,0-1.8C353,226.3,353,225.8,352.64,225.3Z"/><path class="cls-45" d="M371.44,224.9c.2.1.4.6.5,1.4l.1-.1c.5-.6,1.2-2.7.4-3.1a2.13,2.13,0,0,0-1.2.1,6.51,6.51,0,0,0-1.7,2.3h.2a.9.9,0,0,0,.5-.1c.1,0,.1-.1.5-.3A1.45,1.45,0,0,1,371.44,224.9Z"/><path class="cls-46" d="M369.44,222.6c-.2,0-.5,0-1.3,1.4-.2.4-.2.6,0,.7a1.21,1.21,0,0,0,1.5-.1C370,224.1,369.94,222.8,369.44,222.6Z"/><path class="cls-47" d="M357.84,229.6c-.1-.1-.2-.1-.3-.2l-.1-.1c-.1-.1-.1-.1-.2-.1-.3,0-.7.2-1,.1s-.4-.3-.5-.4a3,3,0,0,0-1.2.3c-.2.2,0,.6,0,.6.2.2,2.5.6,3.1.2C357.94,229.7,357.94,229.7,357.84,229.6Z"/><path class="cls-48" d="M357.14,231a.37.37,0,0,0-.3.1h-.1l-.1.1c-.1.1-.4.2-.4.4a5.78,5.78,0,0,0,.5,1.4q0,.15.3,0a1.45,1.45,0,0,0,.4-.9C357.44,231.6,357.44,231.1,357.14,231Z"/><path class="cls-49" d="M170.24,71.7c.2-.1.4-.1.5-.2-.1-.1-.2-.2-.3-.1S170.34,71.5,170.24,71.7Z"/><path class="cls-50" d="M277.24,29.3c-.8,0-.6.1-.5.2s2.1,1.7,2.2,1.2A1.64,1.64,0,0,0,277.24,29.3Z"/><path class="cls-51" d="M393.54,101.5c.5,1.4,1.1,3.1,1.7,4.6C394.74,104.6,394.14,103.1,393.54,101.5Z"/><path class="cls-52" d="M272.24,17.9h0Z"/><path class="cls-53" d="M270,27.4c1.5,1.1,5.4,2,6,1.5,0-.1-.1-.1-.1-.2a3.86,3.86,0,0,1-1.5-2.4,2.76,2.76,0,0,1,.7-2.3c.1-.1.2-.1.3-.2l4.8-2.4a39.62,39.62,0,0,1,4.7-.7.35.35,0,0,0,.1-.2v-.1a3.82,3.82,0,0,0-1.3-.4c-8.3,1.3-8.3,1.3-10.1,2.3-.1.1-.2.1-.3.2s-.1.1-.2.2c-.3.3-.1.7-.4,1a9.13,9.13,0,0,1-1.3.8c-.2.2-.3.5-.5.6-.5.4-1.2.4-1.6,1S269.64,27.2,270,27.4Z"/><path class="cls-54" d="M393.34,101l-.1-.3c-.3-.7-.5-1.1-.8-1.8.4.9.7,1.7,1.1,2.6A1.69,1.69,0,0,1,393.34,101Z"/><path class="cls-55" d="M181.34,51.2c.2,0,6.4-4.6,9.4-6.9,0,0,1.1-.9,1.3-1.1-.1,0-.1,0-.4.1v-.1c.2-.2.5-.4.7-.6h-.1a64.61,64.61,0,0,0-8.4,6.3l-2.3,2-.1.1c-.3.3-.7.6-1,.9a4.43,4.43,0,0,1,.9-.7Z"/><path class="cls-56" d="M264.44,31.8a7.68,7.68,0,0,0,2.4-.6c.3-.2-.4-.5-1.1-.5h-.3c-1.2,0-2.5.5-2.2.8A3,3,0,0,0,264.44,31.8Z"/><path class="cls-57" d="M183.74,49h0l.1-.1Z"/><path class="cls-58" d="M396.14,108.4a.31.31,0,0,0-.1-.2h0c0,.1.1.2.1.3Z"/><path class="cls-59" d="M400.94,130.3v-1.1a9.94,9.94,0,0,1-.5-2.3c.1.1.1.4.3.4a4.55,4.55,0,0,1,.5,2c-.1-.7-.2-1.3-.3-2v0l-.7-3.4a.37.37,0,0,0,.1.3c-.6-1.5-.5-3.2-1.2-4.8,0,.2.1.3.1.5.5,2.3,1,5.1,1,5.2,0-.1,0-.1-.2-.6A55.83,55.83,0,0,0,400.94,130.3Z"/><path class="cls-60" d="M389.74,93l-.1-.1Z"/><path class="cls-61" d="M402.14,136.8c-.2-2.7-.8-6.3-.8-6.3a1.7,1.7,0,0,0,0,1v-.1a10.2,10.2,0,0,0,.2,2.7c.2.9.6,7.2-.1,7.8-.7-.5.1-1.4-.4-2l-.1.1c.1,3.6,0,4.5-.1,4.6-.1-.1-.2-.1-.3-.6-.2-.8-.8-.5-.8-.5-.8.4-.3,1.3-.7,1.9-.2.3-.6.3-.8.7l-.8,2.6c-.1.7-.2,1.7-.2,1.8a.1.1,0,0,0,.1.1c.5-.2.1-.8.5-1,.3.3.3.4-.2,2.6a3.88,3.88,0,0,0,.1,2.4h.2a7.5,7.5,0,0,0,1-4.1v-1.2c-.1-.6-.6-1.1-.4-1.8a6.66,6.66,0,0,1,.3-.7l.3.3a.1.1,0,0,0,.1-.1,42.78,42.78,0,0,0,.1,4.5c.9-.5.5-1.6.9-2.3h.1c.1.1.1.1.1.5.3-.2.4-1.6.4-1.6,0,.3.1,1.5.1,1.6,1.2-.4.3-1.8.5-2.7a3.15,3.15,0,0,1,.2.8h.1a1.69,1.69,0,0,0,.3-.6c.1.1.1.1.2.4h.1c.1.1.1.1.1.5C403,147.4,402.14,136.9,402.14,136.8Z"/><path class="cls-62" d="M392.44,98.9c-.5-1.1-1-2.3-1.6-3.5l-.1-.1h0C391.74,97.3,392.14,98.2,392.44,98.9Z"/><path class="cls-63" d="M398.44,116.5c.1.1.1.1.4,1.3-.7-3.3-2-6.3-2.9-9.6-.3-.7-.5-1.4-.8-2.2,1.4,4.1,2.4,7.7,3.4,11.2C398.64,117,398.54,116.8,398.44,116.5Z"/><path class="cls-64" d="M274.94,18Z"/><path class="cls-65" d="M274.44,17.9h.4C274.64,18,274.54,17.9,274.44,17.9Z"/><path class="cls-66" d="M272.84,17.9h0Z"/><path class="cls-67" d="M291.14,25.6h0a.35.35,0,0,0-.1-.2,5.8,5.8,0,0,0-1.9-.8c-.1,0-.2.2,0,.3A3.71,3.71,0,0,0,291.14,25.6Z"/><path class="cls-68" d="M276.44,18h0Z"/><path class="cls-69" d="M248.64,230.7c-3.5.9-3.8,2.6-3.8,2.8-.2,1.8,2,2.4,2.1,4.2,0,.4,0,.5-.7,1.5a4.52,4.52,0,0,0-.6,3.3,1.85,1.85,0,0,0,.2.7,33.92,33.92,0,0,0,2.9,4.6c.3.4.6.4.8.3,1.8-.5,2.7-1,2.7-1.6a33.21,33.21,0,0,1,.2-3.8l1.5-12.6c.3.1.4.4.6.7h.1v-.6c-.1-2-1.3-6.4-2.8-5.8-.9,1.9.3,4.3-1.7,5.8A5.27,5.27,0,0,1,248.64,230.7Z"/><path class="cls-70" d="M313.74,184.8c0,.1.1.1.1.2s.1.2.2.3a.14.14,0,0,0,.2,0v-.1c.1-.2,0-.3-.1-.5a2.27,2.27,0,0,1-.1-.4h-.2c-.2,0-.2.1-.2.2v-.1A.6.6,0,0,1,313.74,184.8Z"/><path class="cls-71" d="M301.54,281.3h0c-.7.1-1.4.3-2,.4.1,0,.9-.1,1.4-.2-.1,0-.2,0-.2.1a77.42,77.42,0,0,0,8.2-2c.2-.1.6-.2.8-.3l1-.3c-1.9.6-2.9.8-3.5,1C301.84,281.2,301.84,281.2,301.54,281.3Z"/><path class="cls-72" d="M312.24,278.5l.3-.1-1.8.6A13.08,13.08,0,0,1,312.24,278.5Z"/><path class="cls-73" d="M382.14,199.1c-.6,1.6-.6,1.6-.7,1.7h0l-.2-.3-.3.3c-.2.1-.5.2-.7.3,0,0-.3.2-.9.7.6-1.2.6-1.3.5-1.5h-.1c-.3.2-.5.6-.8.8s-.8.4-1.1.7l-.3.3c-.2.2-.8,1.1-.6,1.4h0c.6-.4.8-1.1,1.5-1.4,0,0,1-.3.9.4-.2,1.2-1.2,2.1-1.3,3.4a1.14,1.14,0,0,0,.3.7h.1c.1,0,.1-.1.2-.1s.3.2.5,0a2.77,2.77,0,0,0,.3-.9c.3-1.1.5-1.3,1-1.6h0a2.4,2.4,0,0,1-.2.8c-.3.9-.3.9-.3,1a13.24,13.24,0,0,0,1.2-2c1.1-2.5,1.1-3,1-4.7Z"/><path class="cls-74" d="M378.14,193.8c-.1,0-.3,0-.8.9a5.5,5.5,0,0,1-1.3,1.8c-.8.7-1.7,1.3-2.5,2.1a.77.77,0,0,0-.2.3,8.83,8.83,0,0,0,1.9-.9c.2-.1.3-.3.4-.3.4-.3.5-.8.8-1.2h.1a1.39,1.39,0,0,0,1-.5C377.64,195.9,378.54,193.9,378.14,193.8Z"/><path class="cls-75" d="M316.24,191.9c.8-1.2-1-6.3-1.8-6.3-.3,0-.8.8-1.5,4.4-.5,2.3-.2,2.5.1,2.7C314.54,193.8,316.14,191.9,316.24,191.9Z"/><path class="cls-76" d="M371,213.9c-.2-.1-.3,0-.6.1.3.1.7.3,1,.4C371.34,214.1,371.24,213.9,371,213.9Z"/><path class="cls-77" d="M374,215.5c.2.1.3.2.5.2.6-.7,1.1-1.2,1.3-1.5h0A10.15,10.15,0,0,1,374,215.5Z"/><path class="cls-78" d="M371,176c.2-.1.2-.2.3-.4a.37.37,0,0,1,.3-.1,1.69,1.69,0,0,0,.7-.6c.2-.3.3-.6.5-.9s.4-.3.5-.5,0-.2,0-.4a1.42,1.42,0,0,0-.2-.6,2.19,2.19,0,0,1-.5.3l-1.5-.3-1.2.8a1.82,1.82,0,0,0-.1,2S370.64,176.2,371,176Z"/><path class="cls-79" d="M312.74,276.3c.3-.4.9-.3,1.2-.7-.1,0-5.8,1.8-5.9,2.2a50.64,50.64,0,0,0,5.9-1.6,9.2,9.2,0,0,0,.9-.3h0Z"/><path class="cls-80" d="M156.94,223.9a3.51,3.51,0,0,1-.5-.8A3.51,3.51,0,0,0,156.94,223.9Z"/><path class="cls-81" d="M184.94,255.3c-1.2-1-2.4-2-3.5-3C182.54,253.3,183.74,254.3,184.94,255.3Z"/><path class="cls-82" d="M396.24,121.3c.2.1.2.1,1.2,1.8,1.6-3.8-.7-14.2-5.6-25.4-1.3-2.9-2.2-4.6-3-6.1.3.7.6,1.4,1,2.2a38.89,38.89,0,0,1-3.6-6.1,21.75,21.75,0,0,0-2.6-5.5c-.9-1.5-2.2-3.5-3.2-5-7.9-10.8-8.1-11-13.1-16.5-9-9-9.5-9.5-15.7-14.4l-2.4-1.8c-4.3-2.8-8.2-6.3-12.9-8.5.1.1.3.2.4.3-4.3-.6-7.4-4.3-12-4.1-1.8-2.6-2.7-4-12.5-7,.4.2,1,.4,1.4.6-2.4-.4-4.4-1.7-6.8-2.2a3.76,3.76,0,0,0,1.7.8c-2.4.5-4.6-.6-7-.3,1,1.3,2.9,1.4,3.9,2.7-.7-.1-4.5-.4-6.6-.8,1.7,1.7,4,2.3,5.9,3.7-2.5.7-4.6-2.3-7.2-.9.5.4.5.4,2.1,1-1.7.1-1.7.1-4.5-2.9.9,4.6,1.9,6.7,3.5,6.9h0c1.3.2,3.3.4,5.7,3.9-3.4-2.8-4.1-3.3-5.5-2.3,0,.9.9,1.4,1.2,2.1-.7,1-1.9,1.5-2.7,2.3a250.18,250.18,0,0,1,4.6,28.3,170.59,170.59,0,0,0-5.1-28h0a13.77,13.77,0,0,1-4.2-1.4c1-.4,2.2-.2,3.2-.4a31.57,31.57,0,0,0-2.6-8.2,2.78,2.78,0,0,1-1-2,3.45,3.45,0,0,0-.4-2c-.1-.1-.1,0-.2,0a4.33,4.33,0,0,1-.5-.1,9.68,9.68,0,0,0-2.6-.3,2.18,2.18,0,0,1-.5.4c0,1,0,1-1.1,3.1,1,2.5,4.5,3.1,4.6,6.3-4.1-1.3-7.1-7.5-12.2-4.1a8.74,8.74,0,0,0,1.6,1.1,3.36,3.36,0,0,1-3.1.8,1.27,1.27,0,0,0-.1-.6c-7.6-1.2-11.9.5-14.2,1.4-4.5,1.7-5.8,2.3-6.6.6a2.19,2.19,0,0,1,.3-.5,6.6,6.6,0,0,1,1.4-.1,3.7,3.7,0,0,0-.5-1.1c-.4,0-2.2.2-2.7,1.4,2.5,2.9-1.2,3-1.3,3-2.4-.1-2.4-.1-3.6.3L243,40.9c.3.5.7.9,1,1.4a3.48,3.48,0,0,1-5-.6c1.4-5.4,1.4-5.4.9-6.4,7.3,2.3,9.1,2.9,12.6-1.4-2.8-2.3-6.4-2.1-9.6-3.2l.3-.6a7.08,7.08,0,0,1,1.5-.1,2.19,2.19,0,0,0-.3-.5c-3.8.3-3.8.3-4,.1.8-.6,1.8-.5,2.7-.8-.8-1.7-2.1-1.2-6.8.6a22.13,22.13,0,0,1,3.7-1.8c-9.1-.9-51.8,25-50.8,30.9,2.6.4,6-2.7,8.9-5.4-1.6,3.2-1.7,6.8-2.8,10.2a2.18,2.18,0,0,0,.5.4c.9-.1,14.4-11.1,14.6-11.9a4.81,4.81,0,0,0-1.1-.9c0-.2-.1-.5-.1-.7s14.9-14.4,17.4-9.8c-.4.5-.9,1.1-6.4,3.8-5.7,2.8-5.8,7.1-3.2,7.2,3.4.1,6.8-1.9,10.3-.5-1.2.6-3.1-.5-3.9,1.3-2.7.8-5.5.4-8.3.8a4.2,4.2,0,0,0,.4,1.9,3.92,3.92,0,0,1,1,.8c-2.5,3-2.5,3-4.1,2.7a13.39,13.39,0,0,0-.6-1.2c-1.6.4-1.6.4-2.3,1.5-2.6,4.5-2.6,4.5-7.1,7.1.1,0,.1.1.2.1h-.1c-6.9,1.3-6.9,1.3-7.5,1.9-.9.8-1.2.7-2.1.3h-.1c-.2-.2-.7-.7-3.1,0-.5.2-1.3.4-.8-1.8a7.83,7.83,0,0,1,3-4.5,17.72,17.72,0,0,0,3-3.7V58h-.2c-1.1.3-3.2,1-4.1,2.2a20.54,20.54,0,0,0-3.4,7.8c-.1.6-.1.6-1.3,1-3.1,1.2-7.3,3.6-9.3,7.8-3.9,1.4-4.4,7.3-9.5,7-1.7,2.1-1.7,2.1-2.4,2.6-1-.3-1-.3-2.6,2.4.3.1.7.1,1,.2,2.7,11.6-2.9,12.5-10,13.5-2.6,6.4-3.1,13.4-4.9,20a13.74,13.74,0,0,1,2.6-1.2,3.67,3.67,0,0,1,.1,1.8,2.2,2.2,0,0,1,.8.1c1.3-1.3,3.2-1.6,4.2-3.2,13.7-21.6,13.7-21.6,13.8-21.6a8.86,8.86,0,0,0,1.7.8c4.2-4.4,4.2-4.4,5.9-4l8.3,13.8c.2,2.8-2,3.5-6.8,5.1a6.89,6.89,0,0,0,.3.8c1.4.3,2.1,1.5,3.1,2.3a6.89,6.89,0,0,1,.8-.3c-.1-3-.1-3,.9-4.4.2.1.5.3.7.4,1.9-2.2,2.2-5.1,3.7-7.5a2.63,2.63,0,0,1,1.4.9c.1-.3.3-.6.4-.9-.2-.5-.2-.5-3.2-3.2a2.35,2.35,0,0,0,.2-.8c-2.7-1.4-2.6-5-5-6.6,1.1-3.6,1.1-3.6,2.8-4.4l8.4,10.6c.1,7.3.1,7.3,2,10-1.3,3.1-.5,3.7,1.6,5.1h.2c2.2-6.2,2.2-6.2.7-10.3a2.15,2.15,0,0,1,.2-1.9c2.2-3.1,7.7-.2,7.8-.2v.8c3-1.9,3-1.9,5.2-2.6-.5-1.4-1.9-2.4-1.7-4.1.3-2.3,2.7-3.6,3.1-5.9,3.3-1.7,4.6-6.2,8.9-6.5a2.75,2.75,0,0,1-1.5.8c.8.7,1,.9,3.1.8-.3,1.3-.3,1.4-2.4,2.4.1.2.1.6.2.8h.8a10.46,10.46,0,0,0,.4,1.7c1.1,0,2.2-.1,6.1-2.4-2.2-.9-2.6-1.7-2.9-2.4,1.9-1.6,3.9-3.2,9.1-3.3a3,3,0,0,0,.5.7c-.9.9-.9.9-2.7,1.1a3.81,3.81,0,0,0,1.1,1.4c-1.5.8-2.7,2.2-4.4,2.7-.1.2-.2.5-.3.7,12.7,11.1,12.7,11.1,4.7,11.8h-2c-3.8.1-6.8-3.1-10.6-2.9h-.7c-3.1.2-5.5,2.3-8.5,2.9l.7.7c-1.9,2.7-6.3.8-7.8,4.3a4.4,4.4,0,0,0,1.6-.2c-2.7,5.5,2.3,10,5.7,9.2.9-.2,1.1-1.2,1.8-1.6,5.8,1.4,5.8,1.4,7.7-.1,1.1.2,2.2.1,3.3.4-1.9,5-1.5,10.8-5.2,15.2-1.5,1.8-2.6,1.4-7.3-.3-3.6,2.2-7.5.5-11.3.7-.3-.5-.3-.5-4.2-2.2l-.3-.9c-4-1.4-6.4,1.4-6.2,3.4.2,2.2.2,2.2-.5,3.3-1.9.4-5.5-1.4-6.6-1.9l-10.4-6.7c1.6-2.5,1-5.7,2.7-8.2-.6-.6-.6-.6-2.2-1.1-2,1.5-5,1-6.7,3.1a11.94,11.94,0,0,1-1.6-.8s-4.4,1.4-9,6.9c-1.6-.1-1.6-.1-2.4.5a2.76,2.76,0,0,1-1.3-1.1c-4.4,3.5-10.6,32.9-9.9,39.9,2.1,21.3,10.5,30.6,17.2,34.6,4.1-2,6.5-6.9,11.8-6.9.1,0,9.7,5.9,9.9,7a12.75,12.75,0,0,0,5.5,0c-1.9.2-3.6.4-5.4.7a51.93,51.93,0,0,0,1.9,6.7,34.84,34.84,0,0,0,5.2,5c.7.3,1.4.7,8.8,12.3,2.6,4.1,2,9.6,5.4,13.4l14.6,14.8c4.4,3.1,7.6,7.6,12.6,9.9,2.3,1,3.4-1.3,5.2-1.7.1-1.1.6-2.2.6-3.3.2-4.8.2-4.8-1-7.6-.8-1.8-.8-1.8,1.1-2.8.7-.3.7-.3.1-3.5-.1-.9-.1-.9-2.1-3.7-.4-.5-.9-1.3.8-4.4.9-1.5,2.8-1.8,3.9-3,.7-.7.7-3.9.7-3.9a52.47,52.47,0,0,0-1.2-6.2c-.5-1.3-1.7-2.1-2.3-3.3s.1-2.3-.5-3.3c-.4-.8-1.2-1.3-1.7-2.1,0-.1,4.2-11.4,10.3-16.2.1-.1.2-.2.3-.2,5.6-4.6,11.8-18.8,11.7-20.2-2.9-.1-14.1,2.8-14.2,2.8a16.3,16.3,0,0,1-4.1-2.9c.1-9-12-10-12.3-18.7-.1-3.6-.8-4.3-1.6-5s-10.1-16.6-7.5-19.1c.6,1.1.9,2.3,1.4,3.4a1.88,1.88,0,0,0,.8.2,11.06,11.06,0,0,0,1.5-2.2l18.3,34.3c.6,3.7,1.3,4.1,1.6,4.3.1.1,22.3-6.3,24-9.5.6-1.1,1.4-1.3,5.8-2.7.6-1.2.7-2.6,1.2-3.9.2.1.5.3.7.4,2-.7,2.5-1.8,3.7-4.5-1.7-1.1-1.7-1.1-1.9-2.7-4.7-3.2-4.7-3.2-5.7-6.3-3.9,4.5-4.2,4.5-10.5,4.3-1.1-1.6-.9-3.6-1.5-5.3.1,2.1.1,2.1-.5,3.2-11.8-15.5-3.3-14.1-1.5-13.6a2.25,2.25,0,0,1,1.6,1.9,11,11,0,0,0,7.1,7.4c2,.6,4.1-.2,6.1.6,1.1.4.6,2,1.7,2.4,5.8,2.2,5.8,2.2,20.3,1.6,3.5,6.7,3.5,6.7,7.8,6.7l-.3.9a8.88,8.88,0,0,1-2.6.4h-.3c2.5,4.5,4.3,4,5.8,3.6,0-.1.3-.2.4-.3a5.77,5.77,0,0,1,2.4-2.7c-2.4,23,3.8,31,5,32.4a7.89,7.89,0,0,0,3.2-2.1s4.3-8.7,4.5-10c.3-2.5.4-3.1,1.5-3.4.1,0,14-7,14.5-11.4,1.7-.3,9.4-1.2,9.4-1.2,3.3,9.8,3.3,9.8,2.6,15.4,2,1.3,2.6.8,5-1.8.8,1.7.5,6.9.1,10s-3,5.7-3,9.1c0,2.7,2.6,4.8,2,7.6-.7,3.7-.9,4.6,1.4,7.5.2.1.3.2.4.2-.1,0-.2-.1-.4-.1.4.4.6.6.8.5,0-.1.1-.2.1-.3.1-2.8,2-5.5.9-8.5-1.6-4.3-1.6-4.3-1.7-8-2.6-2.1,3.4-8.6,3.5-8.6s.5.1.7.1c-.1.2-.2.6-.3.8,1,1.8,3.3,2.4,4.2,4.4a5.89,5.89,0,0,1-.2,5.5c.1,0,13.2-2.8,8.6-16.4-1.7-5.1-1.7-5.1,0-6.8,5.7-5.6,6.1-1,6.3.7,4.3-3,10.8-2.3,13.5-8,1.5-3.3,1.5-3.3,3.5-16.7.2-1.4-.8-5-1.6-6.9-1.2-2.9,2.6-3.9,2.4-6.3-4.4-3.5-4.4-3.5-5-5.8.9-1.4,2.6-2,3.6-3.4.2,0,.5-.1.7-.1.3.5.3.5.8,3.1,1,.5,3.8,1.7,4.2,8.3.2,3.1-.7,6.3.2,9.4h.7s2.2-2.7,0-11.2C394.94,130.2,394.64,129.1,396.24,121.3ZM264.44,115a18.46,18.46,0,0,1-6.2-.4,24.85,24.85,0,0,1-3-.9l-3.4-1.7a.94.94,0,0,1-.1-.9,27.12,27.12,0,0,1,1.3-3,21.66,21.66,0,0,1,.4-2.5,50.63,50.63,0,0,1,2.4-4.6.37.37,0,0,1,.3.1c-1.3-.8-2.9-1-4.1-2.1a5.81,5.81,0,0,1-.9-2.5c-.6-3.3-.6-3.3-2.4-5a12.41,12.41,0,0,0,2.5-1.3c.5-.5.6-1.2,1.1-1.7.3-.3.9-.2,1.2-.5a8.78,8.78,0,0,0,1.2-1.5,6.38,6.38,0,0,1,5.3-1.2,1.83,1.83,0,0,0,.9.2,1.7,1.7,0,0,0,.7-.1c2.2-.9,3.1.7,2.6,2.7-.3,1.2-.3,1.2,3.4,1.3v.1a11.7,11.7,0,0,1-2,1.2v-.2c-.1,0-7.3-1.8-6.3.1.3.4.7.7,1,1.1l-.1.1a4,4,0,0,1-1.9-.2l-.1.1c2.6,5.5,2.6,5.5,4.2,5.5,0,1.4-.8,2.7-.2,4.1.6-.5.6-2.1,1.6-1.6s1.7,3.3,1.7,3.3c0,.3-.5.3-1.4.3a2.5,2.5,0,0,0-1.7.4c-.6.5-.6.5.8,2.6.9,1.3.3,2.9.5,4.3s.9,2.6,1.1,3.9A.89.89,0,0,1,264.44,115Z"/><path class="cls-83" d="M161.54,229.9c-.2-.3-3.5-4.7-3.5-4.7a.6.6,0,0,0,.1.4c-.4-.4-.9-1.1-1.3-1.6,2.3,3.3,5.2,7.5,7.5,10.6,8.5,10,8.8,10.4,14.4,15.5.8.7,1.7,1.5,2.7,2.3A142.3,142.3,0,0,1,161.54,229.9Z"/><path class="cls-84" d="M186.74,256.8l-1.8-1.5Z"/><path class="cls-85" d="M380.34,195.9a2.4,2.4,0,0,0-1.2,1.5,1.27,1.27,0,0,0-.1.6c0,.2.1.4.1.6s-.2.5,0,.7c0,0,.1,0,.3-.2a17.1,17.1,0,0,0,1.1-1.4c.4-.5.9-.8,1.3-1.3a11.88,11.88,0,0,0,.8-1.6c.1-.2.2-.5.4-1-.4.5-.9,1.1-1.3,1.5,0,0,.8-2.9-.8-3.3-1.2,0-1.4,2.7-1,3.2a.8.8,0,0,0,1.1.1C380.74,195.6,380.44,195.8,380.34,195.9Z"/><path class="cls-86" d="M383.84,193.3c-.5-.2-.7-.3-.5,1.2a1.63,1.63,0,0,1,0,.7c0,.1-.3.6-.3.7-.2.1-.2-.2-.3-.3h0c-.1,0-.2.5-.2.5-.1.3,0,.7-.1,1s-.3.8-.4,1.2v.1c.1,0,.1,0,.2-.3.9-2.2.9-2.2,1-2.2.3.3-.1.5,0,.8a4.78,4.78,0,0,0,.6-1.1C384.54,193.6,384.24,193.5,383.84,193.3Z"/><path class="cls-87" d="M382,183.8c-1.3,2.7-1.1,3-.4,3.9.5.7-.2,1.3-.1,2,.1.5.6.8.7,1.3v.5c.4-.3.2-1,.7-1.2.6.8-.4,1.8.4,2.5.3-1.6.3-1.6.4-1.7.3-.2.3-.2.2-.8-.2-1-.5-1.1-1.4-1.5a8,8,0,0,1,1-4c.1.1.1.1.2.1.7-.5,2-4.6,2-4.6a.1.1,0,0,0-.1-.1,5.67,5.67,0,0,1-1.3-1h-.1a15,15,0,0,0-1.8,4.4,2.39,2.39,0,0,1-.2.9S382.14,184.1,382,183.8Z"/><path class="cls-88" d="M388.44,164.8a4,4,0,0,0-2.3,1.7c-.3.9.1,5.4.1,5.4.3,0,1.2-2.1,1.2-2.1.5-1.3.8-2.7,1.2-4C388.84,165.3,388.74,164.9,388.44,164.8Z"/><path class="cls-89" d="M186.74,256.8c.2.1.3.3.5.4.8.6,1.6,1.2,2.3,1.8,1.2.9,2.5,1.8,3.8,2.7-1.9-1.4-3.9-2.8-5.6-4.1C187.44,257.3,187,257.1,186.74,256.8Z"/></g></g></svg>